{
	"asset":{
		"generator":"Khronos glTF Blender I/O v4.0.44",
		"version":"2.0"
	},
	"extensionsUsed":[
		"KHR_materials_emissive_strength"
	],
	"scene":0,
	"scenes":[
		{
			"name":"Scene",
			"nodes":[
				28
			]
		}
	],
	"nodes":[
		{
			"mesh":0,
			"name":"Cube.001_RExtr.001_spaceship racer_0",
			"translation":[
				-7.62939453125e-06,
				0,
				1.52587890625e-05
			]
		},
		{
			"children":[
				0
			],
			"name":"Cube.001_RExtr.001",
			"translation":[
				745.5386352539062,
				159.318603515625,
				-5.92169189453125
			]
		},
		{
			"mesh":1,
			"name":"Cube.001_RPanel.001_spaceship racer_0",
			"translation":[
				-7.62939453125e-06,
				-3.0517578125e-05,
				-1.52587890625e-05
			]
		},
		{
			"children":[
				2
			],
			"name":"Cube.001_RPanel.001",
			"translation":[
				739.256591796875,
				-3.0517578125e-05,
				-1.52587890625e-05
			]
		},
		{
			"mesh":2,
			"name":"Cube.001_RPanel.003_spaceship racer_0",
			"translation":[
				-7.62939453125e-06,
				-3.0517578125e-05,
				-1.52587890625e-05
			]
		},
		{
			"children":[
				4
			],
			"name":"Cube.001_RPanel.003",
			"translation":[
				739.256591796875,
				-3.0517578125e-05,
				-1.52587890625e-05
			]
		},
		{
			"mesh":3,
			"name":"Cube.001_RPanel.003_RExtr_spaceship racer_0",
			"translation":[
				-7.62939453125e-06,
				-3.0517578125e-05,
				-1.52587890625e-05
			]
		},
		{
			"children":[
				6
			],
			"name":"Cube.001_RPanel.003_RExtr",
			"translation":[
				739.256591796875,
				-3.0517578125e-05,
				-1.52587890625e-05
			]
		},
		{
			"mesh":4,
			"name":"Cube.001_RPanel.003_RExtr.001_spaceship racer_0",
			"translation":[
				-7.62939453125e-06,
				-3.0517578125e-05,
				-1.52587890625e-05
			]
		},
		{
			"children":[
				8
			],
			"name":"Cube.001_RPanel.003_RExtr.001",
			"translation":[
				739.256591796875,
				-3.0517578125e-05,
				-1.52587890625e-05
			]
		},
		{
			"mesh":5,
			"name":"Cube.001_spaceship racer_0",
			"translation":[
				-7.62939453125e-06,
				0,
				7.62939453125e-06
			]
		},
		{
			"children":[
				10
			],
			"name":"Cube.083",
			"translation":[
				739.256591796875,
				-64.81488037109375,
				64.77091217041016
			]
		},
		{
			"mesh":6,
			"name":"Cube.003_spaceship racer_0"
		},
		{
			"children":[
				12
			],
			"name":"Cube.084",
			"translation":[
				737.618408203125,
				46.841766357421875,
				-176.4125213623047
			]
		},
		{
			"mesh":7,
			"name":"Cube.002_spaceship racer_0",
			"translation":[
				-7.62939453125e-06,
				0,
				1.52587890625e-05
			]
		},
		{
			"children":[
				14
			],
			"name":"Cube.085",
			"translation":[
				736.7886962890625,
				-267.140380859375,
				-33.214202880859375
			]
		},
		{
			"mesh":8,
			"name":"Cube.005_cockpit_0",
			"translation":[
				7.62939453125e-06,
				2.193450927734375e-05,
				-1.9073486328125e-05
			]
		},
		{
			"children":[
				16
			],
			"name":"Cube.086",
			"rotation":[
				0.04361939802765846,
				0,
				0,
				0.9990482330322266
			],
			"translation":[
				739.4459228515625,
				110.43634033203125,
				307.17938232421875
			]
		},
		{
			"mesh":9,
			"name":"Cylinder.002_spaceship racer_0",
			"translation":[
				-7.62939453125e-06,
				-6.380290142260492e-05,
				1.4102712157182395e-05
			]
		},
		{
			"children":[
				18
			],
			"name":"Cylinder.017",
			"rotation":[
				0.70710688829422,
				0,
				0,
				0.7071066498756409
			],
			"translation":[
				739.6911010742188,
				-59.3895263671875,
				-553.3759765625
			]
		},
		{
			"mesh":10,
			"name":"Cylinder.003_spaceship racer_0",
			"translation":[
				7.62939453125e-06,
				0,
				0
			]
		},
		{
			"children":[
				20
			],
			"name":"Cylinder.018",
			"rotation":[
				0.70710688829422,
				0,
				0,
				0.7071066498756409
			],
			"translation":[
				742.1466674804688,
				-64.53500366210938,
				-508.88494873046875
			]
		},
		{
			"mesh":11,
			"name":"Cylinder.004_spaceship racer_0",
			"translation":[
				-3.814697265625e-06,
				0,
				-4.57763671875e-05
			]
		},
		{
			"children":[
				22
			],
			"name":"Cylinder.019",
			"rotation":[
				0.4806404113769531,
				0,
				0,
				0.8769177794456482
			],
			"translation":[
				789.5182495117188,
				59.4530029296875,
				-224.91233825683594
			]
		},
		{
			"mesh":12,
			"name":"Sphere_cockpit_0",
			"translation":[
				7.62939453125e-06,
				-2.47955322265625e-05,
				0
			]
		},
		{
			"children":[
				24
			],
			"name":"Sphere.002",
			"rotation":[
				0.0871557667851448,
				0,
				0,
				0.9961947202682495
			],
			"translation":[
				739.3652954101562,
				145.68869018554688,
				315.602294921875
			]
		},
		{
			"children":[
				1,
				3,
				5,
				7,
				9,
				11,
				13,
				15,
				17,
				19,
				21,
				23,
				25
			],
			"name":"RootNode.001",
			"translation":[
				0,
				-3.0517578125e-05,
				-1.52587890625e-05
			]
		},
		{
			"children":[
				26
			],
			"name":"electric space vehicle.fbx",
			"scale":[
				0.009999999776482582,
				0.010000001639127731,
				0.010000001639127731
			],
			"translation":[
				-8.241952896118164,
				2.699974775314331,
				-1.479594111442566
			]
		},
		{
			"children":[
				27
			],
			"name":"Sketchfab_model.001"
		}
	],
	"materials":[
		{
			"alphaMode":"BLEND",
			"doubleSided":true,
			"emissiveFactor":[
				1,
				1,
				1
			],
			"emissiveTexture":{
				"index":0
			},
			"extensions":{
				"KHR_materials_emissive_strength":{
					"emissiveStrength":3.057187080383301
				}
			},
			"name":"spaceship_racer",
			"normalTexture":{
				"index":1
			},
			"pbrMetallicRoughness":{
				"baseColorTexture":{
					"index":2
				},
				"metallicFactor":0.7313308119773865,
				"metallicRoughnessTexture":{
					"index":3
				}
			}
		},
		{
			"doubleSided":true,
			"emissiveFactor":[
				1,
				1,
				1
			],
			"emissiveTexture":{
				"index":4
			},
			"extensions":{
				"KHR_materials_emissive_strength":{
					"emissiveStrength":4.394824981689453
				}
			},
			"name":"cockpit",
			"normalTexture":{
				"index":5
			},
			"pbrMetallicRoughness":{
				"baseColorTexture":{
					"index":6
				},
				"metallicRoughnessTexture":{
					"index":7
				}
			}
		}
	],
	"meshes":[
		{
			"name":"Cube.001_RExtr.001_spaceship racer_0",
			"primitives":[
				{
					"attributes":{
						"POSITION":0,
						"NORMAL":1,
						"TEXCOORD_0":2
					},
					"indices":3,
					"material":0
				}
			]
		},
		{
			"name":"Cube.001_RPanel.001_spaceship racer_0",
			"primitives":[
				{
					"attributes":{
						"POSITION":4,
						"NORMAL":5,
						"TEXCOORD_0":6
					},
					"indices":7,
					"material":0
				}
			]
		},
		{
			"name":"Cube.001_RPanel.003_spaceship racer_0",
			"primitives":[
				{
					"attributes":{
						"POSITION":8,
						"NORMAL":9,
						"TEXCOORD_0":10
					},
					"indices":11,
					"material":0
				}
			]
		},
		{
			"name":"Cube.001_RPanel.003_RExtr_spaceship racer_0",
			"primitives":[
				{
					"attributes":{
						"POSITION":12,
						"NORMAL":13,
						"TEXCOORD_0":14
					},
					"indices":15,
					"material":0
				}
			]
		},
		{
			"name":"Cube.001_RPanel.003_RExtr.001_spaceship racer_0",
			"primitives":[
				{
					"attributes":{
						"POSITION":16,
						"NORMAL":17,
						"TEXCOORD_0":18
					},
					"indices":15,
					"material":0
				}
			]
		},
		{
			"name":"Cube.001_spaceship racer_0",
			"primitives":[
				{
					"attributes":{
						"POSITION":19,
						"NORMAL":20,
						"TEXCOORD_0":21
					},
					"indices":22,
					"material":0
				}
			]
		},
		{
			"name":"Cube.003_spaceship racer_0",
			"primitives":[
				{
					"attributes":{
						"POSITION":23,
						"NORMAL":24,
						"TEXCOORD_0":25
					},
					"indices":26,
					"material":0
				}
			]
		},
		{
			"name":"Cube.002_spaceship racer_0",
			"primitives":[
				{
					"attributes":{
						"POSITION":27,
						"NORMAL":28,
						"TEXCOORD_0":29
					},
					"indices":30,
					"material":0
				}
			]
		},
		{
			"name":"Cube.005_cockpit_0",
			"primitives":[
				{
					"attributes":{
						"POSITION":31,
						"NORMAL":32,
						"TEXCOORD_0":33
					},
					"indices":34,
					"material":1
				}
			]
		},
		{
			"name":"Cylinder.002_spaceship racer_0",
			"primitives":[
				{
					"attributes":{
						"POSITION":35,
						"NORMAL":36,
						"TEXCOORD_0":37
					},
					"indices":38,
					"material":0
				}
			]
		},
		{
			"name":"Cylinder.003_spaceship racer_0",
			"primitives":[
				{
					"attributes":{
						"POSITION":39,
						"NORMAL":40,
						"TEXCOORD_0":41
					},
					"indices":42,
					"material":0
				}
			]
		},
		{
			"name":"Cylinder.004_spaceship racer_0",
			"primitives":[
				{
					"attributes":{
						"POSITION":43,
						"NORMAL":44,
						"TEXCOORD_0":45
					},
					"indices":46,
					"material":0
				}
			]
		},
		{
			"name":"Sphere_cockpit_0",
			"primitives":[
				{
					"attributes":{
						"POSITION":47,
						"NORMAL":48,
						"TEXCOORD_0":49
					},
					"indices":50,
					"material":1
				}
			]
		}
	],
	"textures":[
		{
			"sampler":0,
			"source":0
		},
		{
			"sampler":0,
			"source":1
		},
		{
			"sampler":0,
			"source":2
		},
		{
			"sampler":0,
			"source":3
		},
		{
			"sampler":0,
			"source":4
		},
		{
			"sampler":0,
			"source":5
		},
		{
			"sampler":0,
			"source":6
		},
		{
			"sampler":0,
			"source":7
		}
	],
	"images":[
		{
			"mimeType":"image/png",
			"name":"spaceship_racer_emissive",
			"uri":"textures/spaceship_racer_emissive.png"
		},
		{
			"mimeType":"image/png",
			"name":"spaceship_racer_normal",
			"uri":"textures/spaceship_racer_normal.png"
		},
		{
			"mimeType":"image/png",
			"name":"spaceship_racer_baseColor",
			"uri":"textures/spaceship_racer_baseColor.png"
		},
		{
			"mimeType":"image/png",
			"name":"spaceship_racer_metallicRoughness",
			"uri":"spaceship_racer_metallicRoughness.png"
		},
		{
			"mimeType":"image/png",
			"name":"cockpit_emissive",
			"uri":"textures/cockpit_emissive.png"
		},
		{
			"mimeType":"image/png",
			"name":"cockpit_normal",
			"uri":"textures/cockpit_normal.png"
		},
		{
			"mimeType":"image/png",
			"name":"cockpit_baseColor",
			"uri":"textures/cockpit_baseColor.png"
		},
		{
			"mimeType":"image/png",
			"name":"cockpit_metallicRoughness",
			"uri":"textures/cockpit_metallicRoughness.png"
		}
	],
	"accessors":[
		{
			"bufferView":0,
			"componentType":5126,
			"count":60,
			"max":[
				77.39627075195312,
				11.805295944213867,
				73.19566345214844
			],
			"min":[
				-77.39627075195312,
				-7.329751014709473,
				-39.78820037841797
			],
			"type":"VEC3"
		},
		{
			"bufferView":1,
			"componentType":5126,
			"count":60,
			"type":"VEC3"
		},
		{
			"bufferView":2,
			"componentType":5126,
			"count":60,
			"type":"VEC2"
		},
		{
			"bufferView":3,
			"componentType":5123,
			"count":90,
			"type":"SCALAR"
		},
		{
			"bufferView":4,
			"componentType":5126,
			"count":131,
			"max":[
				-56.085906982421875,
				131.31971740722656,
				1223.22021484375
			],
			"min":[
				-176.4735870361328,
				0,
				-257.7538757324219
			],
			"type":"VEC3"
		},
		{
			"bufferView":5,
			"componentType":5126,
			"count":131,
			"type":"VEC3"
		},
		{
			"bufferView":6,
			"componentType":5126,
			"count":131,
			"type":"VEC2"
		},
		{
			"bufferView":7,
			"componentType":5123,
			"count":270,
			"type":"SCALAR"
		},
		{
			"bufferView":8,
			"componentType":5126,
			"count":131,
			"max":[
				176.4735870361328,
				131.31971740722656,
				1223.22021484375
			],
			"min":[
				56.085906982421875,
				0,
				-257.7538757324219
			],
			"type":"VEC3"
		},
		{
			"bufferView":9,
			"componentType":5126,
			"count":131,
			"type":"VEC3"
		},
		{
			"bufferView":10,
			"componentType":5126,
			"count":131,
			"type":"VEC2"
		},
		{
			"bufferView":11,
			"componentType":5123,
			"count":270,
			"type":"SCALAR"
		},
		{
			"bufferView":12,
			"componentType":5126,
			"count":172,
			"max":[
				162.52227783203125,
				111.58517456054688,
				1196.508056640625
			],
			"min":[
				65.76104736328125,
				29.06991195678711,
				411.92230224609375
			],
			"type":"VEC3"
		},
		{
			"bufferView":13,
			"componentType":5126,
			"count":172,
			"type":"VEC3"
		},
		{
			"bufferView":14,
			"componentType":5126,
			"count":172,
			"type":"VEC2"
		},
		{
			"bufferView":15,
			"componentType":5123,
			"count":240,
			"type":"SCALAR"
		},
		{
			"bufferView":16,
			"componentType":5126,
			"count":172,
			"max":[
				-65.76104736328125,
				111.58517456054688,
				1196.508056640625
			],
			"min":[
				-162.52227783203125,
				29.06991195678711,
				411.92230224609375
			],
			"type":"VEC3"
		},
		{
			"bufferView":17,
			"componentType":5126,
			"count":172,
			"type":"VEC3"
		},
		{
			"bufferView":18,
			"componentType":5126,
			"count":172,
			"type":"VEC2"
		},
		{
			"bufferView":19,
			"componentType":5126,
			"count":2047,
			"max":[
				461.79388427734375,
				272.4712219238281,
				1224.5919189453125
			],
			"min":[
				-461.79388427734375,
				-228.99072265625,
				-531.9512329101562
			],
			"type":"VEC3"
		},
		{
			"bufferView":20,
			"componentType":5126,
			"count":2047,
			"type":"VEC3"
		},
		{
			"bufferView":21,
			"componentType":5126,
			"count":2047,
			"type":"VEC2"
		},
		{
			"bufferView":22,
			"componentType":5123,
			"count":5058,
			"type":"SCALAR"
		},
		{
			"bufferView":23,
			"componentType":5126,
			"count":180,
			"max":[
				92.32301330566406,
				70.51202392578125,
				61.57828140258789
			],
			"min":[
				-87.9892349243164,
				-39.03440856933594,
				-78.31591796875
			],
			"type":"VEC3"
		},
		{
			"bufferView":24,
			"componentType":5126,
			"count":180,
			"type":"VEC3"
		},
		{
			"bufferView":25,
			"componentType":5126,
			"count":180,
			"type":"VEC2"
		},
		{
			"bufferView":26,
			"componentType":5123,
			"count":420,
			"type":"SCALAR"
		},
		{
			"bufferView":27,
			"componentType":5126,
			"count":5900,
			"max":[
				44.82611846923828,
				113.48097229003906,
				210.85675048828125
			],
			"min":[
				-44.826194763183594,
				1.1920928955078125e-05,
				-210.85675048828125
			],
			"type":"VEC3"
		},
		{
			"bufferView":28,
			"componentType":5126,
			"count":5900,
			"type":"VEC3"
		},
		{
			"bufferView":29,
			"componentType":5126,
			"count":5900,
			"type":"VEC2"
		},
		{
			"bufferView":30,
			"componentType":5123,
			"count":11178,
			"type":"SCALAR"
		},
		{
			"bufferView":31,
			"componentType":5126,
			"count":466,
			"max":[
				86.13558197021484,
				51.818267822265625,
				158.0608367919922
			],
			"min":[
				-83.44680786132812,
				-16.91798210144043,
				-201.68753051757812
			],
			"type":"VEC3"
		},
		{
			"bufferView":32,
			"componentType":5126,
			"count":466,
			"type":"VEC3"
		},
		{
			"bufferView":33,
			"componentType":5126,
			"count":466,
			"type":"VEC2"
		},
		{
			"bufferView":34,
			"componentType":5123,
			"count":684,
			"type":"SCALAR"
		},
		{
			"bufferView":35,
			"componentType":5126,
			"count":1395,
			"max":[
				139.58836364746094,
				247.4152374267578,
				139.58836364746094
			],
			"min":[
				-139.58840942382812,
				39.244606018066406,
				-139.58840942382812
			],
			"type":"VEC3"
		},
		{
			"bufferView":36,
			"componentType":5126,
			"count":1395,
			"type":"VEC3"
		},
		{
			"bufferView":37,
			"componentType":5126,
			"count":1395,
			"type":"VEC2"
		},
		{
			"bufferView":38,
			"componentType":5123,
			"count":3600,
			"type":"SCALAR"
		},
		{
			"bufferView":39,
			"componentType":5126,
			"count":1302,
			"max":[
				100.20828247070312,
				94.14851379394531,
				100.20828247070312
			],
			"min":[
				-100.20828247070312,
				-95.13705444335938,
				-100.20828247070312
			],
			"type":"VEC3"
		},
		{
			"bufferView":40,
			"componentType":5126,
			"count":1302,
			"type":"VEC3"
		},
		{
			"bufferView":41,
			"componentType":5126,
			"count":1302,
			"type":"VEC2"
		},
		{
			"bufferView":42,
			"componentType":5123,
			"count":3234,
			"type":"SCALAR"
		},
		{
			"bufferView":43,
			"componentType":5126,
			"count":1492,
			"max":[
				9.852890968322754,
				21.02678680419922,
				10.314821243286133
			],
			"min":[
				-113.30824279785156,
				-21.026763916015625,
				-10.314824104309082
			],
			"type":"VEC3"
		},
		{
			"bufferView":44,
			"componentType":5126,
			"count":1492,
			"type":"VEC3"
		},
		{
			"bufferView":45,
			"componentType":5126,
			"count":1492,
			"type":"VEC2"
		},
		{
			"bufferView":46,
			"componentType":5123,
			"count":3384,
			"type":"SCALAR"
		},
		{
			"bufferView":47,
			"componentType":5126,
			"count":437,
			"max":[
				15.865056037902832,
				15.864782333374023,
				11.493757247924805
			],
			"min":[
				-15.864497184753418,
				-20.069198608398438,
				-13.823108673095703
			],
			"type":"VEC3"
		},
		{
			"bufferView":48,
			"componentType":5126,
			"count":437,
			"type":"VEC3"
		},
		{
			"bufferView":49,
			"componentType":5126,
			"count":437,
			"type":"VEC2"
		},
		{
			"bufferView":50,
			"componentType":5123,
			"count":2088,
			"type":"SCALAR"
		}
	],
	"bufferViews":[
		{
			"buffer":0,
			"byteLength":720,
			"byteOffset":0,
			"target":34962
		},
		{
			"buffer":0,
			"byteLength":720,
			"byteOffset":720,
			"target":34962
		},
		{
			"buffer":0,
			"byteLength":480,
			"byteOffset":1440,
			"target":34962
		},
		{
			"buffer":0,
			"byteLength":180,
			"byteOffset":1920,
			"target":34963
		},
		{
			"buffer":0,
			"byteLength":1572,
			"byteOffset":2100,
			"target":34962
		},
		{
			"buffer":0,
			"byteLength":1572,
			"byteOffset":3672,
			"target":34962
		},
		{
			"buffer":0,
			"byteLength":1048,
			"byteOffset":5244,
			"target":34962
		},
		{
			"buffer":0,
			"byteLength":540,
			"byteOffset":6292,
			"target":34963
		},
		{
			"buffer":0,
			"byteLength":1572,
			"byteOffset":6832,
			"target":34962
		},
		{
			"buffer":0,
			"byteLength":1572,
			"byteOffset":8404,
			"target":34962
		},
		{
			"buffer":0,
			"byteLength":1048,
			"byteOffset":9976,
			"target":34962
		},
		{
			"buffer":0,
			"byteLength":540,
			"byteOffset":11024,
			"target":34963
		},
		{
			"buffer":0,
			"byteLength":2064,
			"byteOffset":11564,
			"target":34962
		},
		{
			"buffer":0,
			"byteLength":2064,
			"byteOffset":13628,
			"target":34962
		},
		{
			"buffer":0,
			"byteLength":1376,
			"byteOffset":15692,
			"target":34962
		},
		{
			"buffer":0,
			"byteLength":480,
			"byteOffset":17068,
			"target":34963
		},
		{
			"buffer":0,
			"byteLength":2064,
			"byteOffset":17548,
			"target":34962
		},
		{
			"buffer":0,
			"byteLength":2064,
			"byteOffset":19612,
			"target":34962
		},
		{
			"buffer":0,
			"byteLength":1376,
			"byteOffset":21676,
			"target":34962
		},
		{
			"buffer":0,
			"byteLength":24564,
			"byteOffset":23052,
			"target":34962
		},
		{
			"buffer":0,
			"byteLength":24564,
			"byteOffset":47616,
			"target":34962
		},
		{
			"buffer":0,
			"byteLength":16376,
			"byteOffset":72180,
			"target":34962
		},
		{
			"buffer":0,
			"byteLength":10116,
			"byteOffset":88556,
			"target":34963
		},
		{
			"buffer":0,
			"byteLength":2160,
			"byteOffset":98672,
			"target":34962
		},
		{
			"buffer":0,
			"byteLength":2160,
			"byteOffset":100832,
			"target":34962
		},
		{
			"buffer":0,
			"byteLength":1440,
			"byteOffset":102992,
			"target":34962
		},
		{
			"buffer":0,
			"byteLength":840,
			"byteOffset":104432,
			"target":34963
		},
		{
			"buffer":0,
			"byteLength":70800,
			"byteOffset":105272,
			"target":34962
		},
		{
			"buffer":0,
			"byteLength":70800,
			"byteOffset":176072,
			"target":34962
		},
		{
			"buffer":0,
			"byteLength":47200,
			"byteOffset":246872,
			"target":34962
		},
		{
			"buffer":0,
			"byteLength":22356,
			"byteOffset":294072,
			"target":34963
		},
		{
			"buffer":0,
			"byteLength":5592,
			"byteOffset":316428,
			"target":34962
		},
		{
			"buffer":0,
			"byteLength":5592,
			"byteOffset":322020,
			"target":34962
		},
		{
			"buffer":0,
			"byteLength":3728,
			"byteOffset":327612,
			"target":34962
		},
		{
			"buffer":0,
			"byteLength":1368,
			"byteOffset":331340,
			"target":34963
		},
		{
			"buffer":0,
			"byteLength":16740,
			"byteOffset":332708,
			"target":34962
		},
		{
			"buffer":0,
			"byteLength":16740,
			"byteOffset":349448,
			"target":34962
		},
		{
			"buffer":0,
			"byteLength":11160,
			"byteOffset":366188,
			"target":34962
		},
		{
			"buffer":0,
			"byteLength":7200,
			"byteOffset":377348,
			"target":34963
		},
		{
			"buffer":0,
			"byteLength":15624,
			"byteOffset":384548,
			"target":34962
		},
		{
			"buffer":0,
			"byteLength":15624,
			"byteOffset":400172,
			"target":34962
		},
		{
			"buffer":0,
			"byteLength":10416,
			"byteOffset":415796,
			"target":34962
		},
		{
			"buffer":0,
			"byteLength":6468,
			"byteOffset":426212,
			"target":34963
		},
		{
			"buffer":0,
			"byteLength":17904,
			"byteOffset":432680,
			"target":34962
		},
		{
			"buffer":0,
			"byteLength":17904,
			"byteOffset":450584,
			"target":34962
		},
		{
			"buffer":0,
			"byteLength":11936,
			"byteOffset":468488,
			"target":34962
		},
		{
			"buffer":0,
			"byteLength":6768,
			"byteOffset":480424,
			"target":34963
		},
		{
			"buffer":0,
			"byteLength":5244,
			"byteOffset":487192,
			"target":34962
		},
		{
			"buffer":0,
			"byteLength":5244,
			"byteOffset":492436,
			"target":34962
		},
		{
			"buffer":0,
			"byteLength":3496,
			"byteOffset":497680,
			"target":34962
		},
		{
			"buffer":0,
			"byteLength":4176,
			"byteOffset":501176,
			"target":34963
		}
	],
	"samplers":[
		{
			"magFilter":9729,
			"minFilter":9987
		}
	],
	"buffers":[
		{
			"byteLength":505352,
			"uri":"scene.bin"
		}
	]
}
